# Blender v2.93.1 OBJ File: 'gestures.blend'
# www.blender.org
mtllib turn-signal.mtl
o Cube_Cube.001
v -0.376837 -0.372569 -0.745138
v -0.376837 0.372569 -0.745138
v -0.376837 -0.372569 -1.162601
v -0.376837 0.372569 -1.162601
v 0.002354 -0.372569 -0.745138
v 0.002354 0.372569 -0.745138
v 0.002354 -0.372569 -1.162601
v 0.002354 0.372569 -1.162601
v -0.580575 0.772929 -1.162601
v -0.580575 -0.772929 -1.162601
v 0.206093 -0.772929 -1.162601
v 0.206093 0.772929 -1.162601
v -0.187241 0.000000 -2.162601
v -0.376837 -0.372569 -0.000001
v 0.002354 -0.372569 -0.000001
v -0.376837 -0.104961 -0.089576
v -0.376837 0.107699 -0.244210
v -0.376837 0.267608 -0.462145
v 0.002354 -0.104961 -0.089576
v 0.002354 0.107699 -0.244210
v 0.002354 0.267608 -0.462145
v -0.376837 -0.772929 -0.745138
v 0.002354 -0.772929 -0.745138
v 0.002354 -0.772929 -0.000001
v -0.376837 -0.772929 -0.000001
vt 0.375000 0.000000
vt 0.625000 0.000000
vt 0.625000 0.250000
vt 0.375000 0.250000
vt 0.625000 0.500000
vt 0.375000 0.500000
vt 0.375000 0.500000
vt 0.625000 0.500000
vt 0.625000 0.750000
vt 0.375000 0.750000
vt 0.625000 0.000000
vt 0.625000 0.000000
vt 0.625000 0.000000
vt 0.625000 0.000000
vt 0.125000 0.500000
vt 0.125000 0.750000
vt 0.875000 0.500000
vt 0.875000 0.750000
vt 0.375000 0.250000
vt 0.625000 0.250000
vt 0.375000 0.250000
vt 0.125000 0.500000
vt 0.875000 0.500000
vt 0.625000 0.500000
vt 0.375000 0.500000
vt 0.875000 0.500000
vt 0.625000 0.750000
vt 0.625000 0.750000
vt 0.375000 0.750000
vt 0.625000 0.750000
vt 0.875000 0.750000
vt 0.875000 0.750000
vt 0.625000 0.750000
vt 0.625000 0.750000
vt 0.875000 0.750000
vt 0.875000 0.750000
vt 0.625000 1.000000
vt 0.375000 1.000000
vt 0.875000 0.750000
vt 0.375000 0.000000
vt 0.625000 0.000000
vt 0.125000 0.750000
vn -1.0000 0.0000 0.0000
vn 0.0000 0.0000 1.0000
vn 1.0000 0.0000 0.0000
vn 0.0000 -1.0000 0.0000
vn 0.0000 1.0000 0.0000
vn -0.9306 0.0000 -0.3660
vn 0.9306 0.0000 -0.3660
vn 0.0000 -0.7912 -0.6115
vn 0.0000 0.7912 -0.6115
vn 0.0000 0.3174 0.9483
vn 0.0000 0.9376 0.3477
vn 0.0000 0.8062 0.5916
vn 0.0000 0.5881 0.8088
vn 0.0000 0.0000 -1.0000
usemtl Material.001
s off
f 1/1/1 2/2/1 4/3/1 3/4/1
f 8/5/2 7/6/2 11/7/2 12/8/2
f 7/6/3 8/5/3 6/9/3 5/10/3
f 2/2/1 1/1/1 14/11/1 16/12/1 17/13/1 18/14/1
f 3/15/4 7/6/4 5/10/4 1/16/4
f 8/5/5 4/17/5 2/18/5 6/9/5
f 10/19/6 9/20/6 13/21/6
f 7/6/2 3/15/2 10/22/2 11/7/2
f 4/17/2 8/5/2 12/8/2 9/23/2
f 3/4/2 4/3/2 9/20/2 10/19/2
f 12/8/7 11/7/7 13/24/7
f 11/7/8 10/22/8 13/25/8
f 9/23/9 12/8/9 13/26/9
f 5/10/3 15/27/3 24/28/3 23/29/3
f 19/30/10 16/31/10 14/32/10 15/27/10
f 5/10/3 6/9/3 21/33/3 20/34/3 19/30/3 15/27/3
f 6/9/11 2/18/11 18/35/11 21/33/11
f 21/33/12 18/35/12 17/36/12 20/34/12
f 20/34/13 17/36/13 16/31/13 19/30/13
f 23/29/4 24/28/4 25/37/4 22/38/4
f 15/27/2 14/32/2 25/39/2 24/28/2
f 14/11/1 1/1/1 22/40/1 25/41/1
f 1/16/14 5/10/14 23/29/14 22/42/14
